<svg id="Dargon" xmlns="http://www.w3.org/2000/svg" viewBox="0 0 401.42 179.99"><defs><style>.cls-1{fill:#5b141a;}</style></defs>
<title>Dargon</title>
<path id="Dargon_body" class="cls-1" d="M389.74,154c-4.44-2.15-14.33,3.36-14.33,3.36a3,3,0,0,0-1.53-1.35c15.72-18.82,8.12-40.85,5.33-45.59-3.76-6.36,8.38,5.18,8.38,5.18,4.34,1.7,1.16-7.2,1.16-7.2-14.75-11.86-15-24-14.75-27.76s-2.2-1.74-2.2-1.74-4.74,9.54-1.46,17.06,0,6.17,0,6.17S366.06,92.9,328,92.88c-1.52,0-3.09,0-4.72,0-23.24.42-32-2.28-35.19-4.81-2.62-2.09-1.44-4.06-1.44-4.06.26-1.33,7.09-2.79,7.09-2.79L289.57,87l13-3.76L299.4,90.8l10.7-5.5-.87,5.5,9-6.07,1.3,6.07,7.09-6.65,2.6,6.65s5.5-7.23,6.07-6.07,2.9,6.07,2.9,6.07,5.2-8.1,4.91-6.65,6.36,7.8,5.78,6.65S350,83.86,350,83.86c7.52,6.65,8.39,5.78,8.39,5.78S355.21,83,358.1,77.5s-4.34-6.94-5.5-6.08-7.51,2.61-20.53.29-1.44-2.6-1.44-2.6a42,42,0,0,0,16.77-5.78c8.67-5.21.29-2.61.29-2.61S339,61.59,331.21,63s-25.16-.87-13.88-2.6S341.9,49.16,341.9,49.16s13.6,8.38,19.09,2.89,14.17-5.21,14.17-5.21c10.41,5.21,5.78,12.73,5.78,12.73-.58,9-21.38,7.49-21.11,3.47s-3.47-2-3.47-2,1.74,11.86,17.06,9.26,12.73-18.8,12.73-18.8-6.65-13.3-22.27-6.07-16.19.29-16.19.29,16.19-7.81,12.14-19.95S340.46,15,340.46,15c-7.52-18.22-26-4-26-4-13.88,16.48-24.86,3.76-24.86,3.76-6.37-12.44,8.09-11.28,8.09-11.28,9.28.78,0-3.47,0-3.47-16.48.87-13.88,14.17-13.88,14.17,9.83,16.19,27.47,6.44,27.47,6.44,11.28-13.81,19.38-9.91,19.38-9.91,13.59,7.81-6.65,17.06-23.18,19.66S275.4,15,275.4,15c-8.1-10.12-13-8.1-13-8.1C254.58,15,274,25.16,274,25.16,269,24,251.68,11.57,251.68,11.57s-9.83-.29-9.25,5.2,19.66,14.75,19.66,14.75C251.68,33,250.24,26.89,238.38,22s-10.7,7.23-10.7,7.23c9.55,6.65,27.47,10.41,27.47,10.41h-9.83c-20.82,2.6-2.31,10.41-2,9.25s18.79-3.76,18.79-3.76c9.84.58,9,3.18,9,3.18-11,1.74-39,7.81-39,7.81-8.38,2.31,3.18,8.09,3.18,8.09-.63,2.21-1.21,4.36-1.75,6.49-4.3-5.23-7.59-9.56-7.59-9.56C195.71,29.58,161,27.64,161,27.64s-3.52-3.91-32.41,2.95S84.4,64.79,84.4,64.79c-2.47,3.12-6.77,7.29-10,11.48-3.91.78-14.22,2.91-15.58,3.93-1.67,1.26,1.82,3.56,1.82,3.56l-8.28,2,1.9,3.73-13.87.11L45.27,94s-14.79-4.29-20.38-2.25L29,96l-9.5,2.19,2.31,4.54-5.9,2.48,1.54,3L0,113.85l25,6.82L19,123.76,29,127.2,26.8,130s12.05,2.83,20.74-1.59l.3,5.15L54.68,130l2.62,6.42,7.16-6.11.47,2.22L72,126.92l1.36,3.31,4.53-6.72,4,4,2.23-6,3.4,1.46s5.57-14.43,4.87-17.43c-.3-1.33.69-7.55,0-14,4.75-1.29,6.29-3.52,6.29-3.52,8-12.65,12.79-27.52,37.35-31.77.77-.13,1.55-.22,2.33-.29-1.13,1.14-7,6.74-13.68,7.18-7.49.48.73,7.32,5.32,6.37,3.46-.71,15.1-3.56,23.46-3.74-1.9,1.2.63,7.53,4,8.89,4.34,1.77,22.75,8.48,26.7,14.47s5.58,11.11,7,11,.11-8.14,0-13.08-9.47-11.25-9.47-11.25a3.17,3.17,0,0,0,.37-.75c24.41,20.28,45.24,50.17,49,56.46,16.39,60.2,98.5,50.69,117.24,42a78.4,78.4,0,0,0,14.83-7.8c-1.24,3-3.55,7.35-7.36,9.82-6.3,4.08,4.21,6,7.75,3s17.86-16.46,25-17.27,12.43,0,12.92-1.24S394.18,156.19,389.74,154ZM156.6,66.47a6.85,6.85,0,0,0-1.31-.62,14.62,14.62,0,0,1,5,.84c1.53.64,2.92,1.31,4.18,2A18,18,0,0,1,156.6,66.47Zm15.66,1.61s-.66.15-1.74.31c-.82-1.13-1.84-2.4-2.85-3.69q2.73,1.67,5.45,3.56Z"/>
<path id="Dargon_nose" class="cls-1" d="M346.71,34.49s-5.4-2.7-9.64,0-5.59,11.18,3.18,10.79c0,0,3.76.39,5.11-7.32C345.36,38,345.36,34.49,346.71,34.49Z"/>
<path id="Dargon_eye" class="cls-1" d="M320.62,45.05s5,7.09-.59,11.45-18.17,4.3-16.81-5.24c0,0,4.7,8.11,12.12,1,0,0,1.61-5.36-2.93-5.07,0,0-13.28,0-13-.84s-9.06,4.22-2.69,13.64c0,0-9-1.06-6.76-15.15,0,0-10.19-3.11-15.19-6.56.63-.34-6-5.81,14.87,1.45,0,0,13.06,6.3,32.08,1.9,0,0,10.53-4,4.47,1.2Z"/>
<path id="Dargon_flakes" class="cls-1" d="M325.2,142.67c-33,10.8-51.33-23-51.33-23s20,6.11,51.33,6.11C325.2,125.75,358.2,131.87,325.2,142.67ZM299.83,64.29s-14.78,5.27-20.88-9.8c0,0-7.34,16.47,12.89,16.85C291.84,71.34,297.48,71.61,299.83,64.29ZM282,73.59S269.3,70.91,271.46,57.8c0,0-12.22,8.32,1.87,17.27C273.33,75.07,277.18,77.67,282,73.59Z"/></svg>
