<svg id="Dog" xmlns="http://www.w3.org/2000/svg" viewBox="0 0 169.53 167.62"><defs>
  <style>.cls-1{fill:#5b121a;}</style></defs>
  <title>Dog</title>
  <path id="Dog_body" class="cls-1" d="M10.09.75S3.94-2.76,1.6,5.43s-1.17,15.5,4.24,19c0,0-7.46,14.92,14.19,21.35,0,0,21.65,1.76,16.09,12.58s-13.45,25.46-6.43,45.35C22.27,133.89,7.85,152.88,2,156.46c-7.46,7.47,7.55,7.41,17.32,6.58,3.61,1.41,8.73-13.17,15-31.81,0,0-1.38,10.34.55,19.22,1.15,5.33-20.74,17.17,8,11.86,2.29.87,5.14,1,8.68-.07,0,0,18.43-.58,22.53,2.63s38.32,5.56,44.47-4.68c0,0,55.58.59,43.59-54.41,0,0-17.85-36.28,7.31-47.11,0,0-32.77-3.51-37.15,28.38,0,0,.58,22.82,8.48,34.53,0,0,5,16.38-9.65,24.57,0,0,14.92-21.94-2.64-40.67S110.43,80,108.68,78.28c0,0,18.14-8.49,20.19-18.73,0,0,4.09-5.26-11.71-6.43S83.23,10.69,87,8.94,80.3-.42,72.11,3.38c0,0-19.6,2.63-25.16-1.46,0,0,2-1.46-12.58,2.63C34.37,4.55,29.39,6.89,10.09.75Z"/>
  <path id="Dog_nose" class="cls-1" d="M12.94,8.87s-1.76-4.39,2.85-3.51,4.61,8.55,2,9-5.93,2.85-8.34,2.42C9.43,16.77,15.79,14.13,12.94,8.87Z"/>
<path id="Dog_eye" class="cls-1" d="M54,25C60.7,14.79,47.24,9.82,47.24,9.82,60.41,10.11,61,20.64,61,20.64c-2.05,12-9.07,12.58-17.26,10.24s-7-14.33,0-15.5,7.9,5.55,7.9,5.55c-2.93,6.73-7.9,6.15-7.9,6.15C49.44,30.87,54,25,54,25Zm5-15.21s13.79,7,8.8,20.77c0,0-.9,6.14-12,7.9,0,0,14.92,4.09,17.55-11.7C73.28,26.79,74.16,8.94,58.94,9.82Zm8.8,31.74S66,93.34,108.61,80.4C108.61,80.4,71.85,87.64,67.74,41.56Z"/>
</svg>
