<svg id="Dargon" xmlns="http://www.w3.org/2000/svg" viewBox="0 0 531.72 429.25"><defs>
  <style>.cls-1{fill:#5b141a;}</style></defs>
  <title>Dragon</title>
  <path id="Dargon_body" class="cls-1" d="M512.2,134.74c-7.32,1.28-14.56,16.74-14.56,16.74a4.57,4.57,0,0,0-3.07-.3c2.63-36.89-26.09-57.14-33.68-60.47-10.21-4.46,14.82-1.06,14.82-1.06,6.81-1.74-4.93-9.83-4.93-9.83-28.5-1.5-39.56-16.1-42.52-20.95s-4.23-.18-4.23-.18,2.62,15.85,13.26,22.16,5.44,7.54,5.44,7.54-13.41-7.56-60,26c-1.86,1.33-3.77,2.74-5.74,4.21-28,21-41.16,25.44-47.28,25.15-5.05-.24-5.35-3.7-5.35-3.7-.86-1.85,6.21-9.66,6.21-9.66l0,10.77L343.18,125l2.74,12,8.24-16.16,3.79,7.49L363.56,113l6.94,6.29,2.8-14.39,9.05,5.85s.35-13.7,2.08-12.79,8.89,4.88,8.89,4.88-.77-14.5.15-12.47,14.66,3.94,12.94,3-4.71-9.52-4.71-9.52c15.06,1.51,15.36-.32,15.36-.32S407.3,78.27,406,69s-11.43-4.66-12.08-2.58-6.9,9.81-24.86,18.46S365,83,365,83A63.23,63.23,0,0,0,380.41,61.1c6-14-1.94-3.43-1.94-3.43S368.63,66.38,360.35,75s-31.54,21.12-19.27,9.06S361.2,48.62,361.2,48.62s24-1.73,25.89-13.3,12.75-18.86,12.75-18.86c17.32-2.81,18.29,10.47,18.29,10.47,7.2,11.47-19.55,28-22.76,22.86s-6,.58-6,.58,12.58,13,29-3.73-1-34.21-1-34.21S397.49,2,384.77,24.64s-19.56,14.63-19.56,14.63,12.93-23.83-2.74-35.11-33.13,4-33.13,4c-25.26-15.65-35.41,18-35.41,18-2.44,32.4-27.1,26.53-27.1,26.53-18.75-9.6,0-20.94,0-20.94,12-7.22-3.06-4.24-3.06-4.24-19.4,15.59-4.49,29.57-4.49,29.57,26.31,11.14,39.29-16.35,39.29-16.35,1.62-26.83,15-29.2,15-29.2C337,9.08,320.4,38.25,302.47,56s-52.72,9.51-52.72,9.51c-18.83-5.24-23.06,1.58-23.06,1.58-2.41,16.78,30.22,12.08,30.22,12.08-7,2.92-39.22,3-39.22,3S205.4,90.51,211,96.72s37,.7,37,.7c-11.45,11-18.58,4.79-37.42,9.23s-6.71,18.28-6.71,18.28c17.54-.28,42.78-11.49,42.78-11.49l-12,8.67c-23.18,21.54,6.35,14.78,5.68,13.11S260,114,260,114c12.54-8,13.77-4,13.77-4-11.91,11.81-40.87,44-40.87,44-8.22,10.23,11,7.1,11,7.1q1.75,4.88,3.58,9.47c-9.87-2.59-17.73-5-17.73-5-64.68-12-108.86,16.24-108.86,16.24s-7.75-1.68-37,32.2S60,294.82,60,294.82c-.27,6-1.85,14.88-2.15,22.88-4.1,4.41-14.84,16.1-15.6,18.55-.93,3,5.37,2.75,5.37,2.75l-8.4,9.71,5.62,2.89L28,364l10,1.1S16,372.87,11,380.29l8.78,1.51-9.69,11.05,6.83,3.51-5,8.24,4.53,2.33L0,429.25l36.64-13.73L32,424.63,47.29,420,47,425.35s17.24-7.17,24-20.25l4.92,6,5.29-10.3L90,406.38l3.38-13.79,2.52,2.3,3.67-13.14,4.59,2.85-.39-12.22,8.53,1.38-2.59-9.34,5.44-1.21s-5.91-22.57-9.4-25.62c-1.55-1.35-5.82-9.84-12.31-17.07,4.67-5.76,4.59-9.84,4.59-9.84-1.4-22.5-8.62-44.94,17.68-71.8.82-.84,1.69-1.64,2.58-2.41-.37,2.4-2.56,14.39-10.4,20.84-8.73,7.19,7.35,8.31,12.13,3.1,3.6-3.92,15.33-17.66,25.4-25.25-1.26,3.14,7.41,8.64,12.67,7.38,6.87-1.66,35.31-9.68,45.42-5.84s16.62,8.67,18.17,7.28-7.05-10.06-11.5-16-21.52-5.41-21.52-5.41a4.49,4.49,0,0,0-.2-1.24c47.74,3.27,99.58,21.48,109.72,25.85,73.14,59.18,165.2-24.84,180.42-52a118.11,118.11,0,0,0,11.26-22.62c1.16,4.79,2.15,12.12-.34,18.5-4.11,10.54,10.47,3.67,12.1-3.2S509,151.91,517,144.64s15.24-10.91,14.71-12.92S519.53,133.46,512.2,134.74ZM144.62,248.86a10.64,10.64,0,0,0-2,.38,20.66,20.66,0,0,1,6.46-3.17c2.3-.54,4.46-.92,6.45-1.24A25.6,25.6,0,0,1,144.62,248.86ZM164,237.7s-.64.72-1.75,1.8c-1.88-.61-4.12-1.24-6.36-1.87q4.54-.36,9.26-.43Z"/>
  <path id="Dargon_nose" class="cls-1" d="M349.11,37.9s-8.54,1.29-11.29,8,2.65,17.77,12.6,10.06c0,0,4.72-2.65,0-12.83C350.38,43.1,347.53,39,349.11,37.9Z"/>
  <path id="Dargon_eye" class="cls-1" d="M327.24,71.9S338.9,76.13,336,85.85s-17.73,20.09-24,7.73c0,0,12.17,5.66,15-8.83,0,0-2.53-7.64-7.6-3.54,0,0-15.53,11-15.88,9.74s-7.15,12.46,8.07,18.27c0,0-11.44,6.21-20.39-12.24,0,0-14.49,4.78-23.19,4.85.46-.92-11.85-1.84,18.61-10.58,0,0,20.48-3.39,39.13-24.29,0,0,9-13.45,6.21-2.28Z"/>
  <path id="Dargon_flakes" class="cls-1" d="M412.94,182.94c-29.76,40-79.06,15.35-79.06,15.35S362.33,189,399,163.05C399,163.05,442.69,143,412.94,182.94Zm-94.2-71.23s-13,18.43-32.52,5.75c0,0,5,25.44,29,9.15C315.18,126.61,322,122.27,318.74,111.71Zm-13.27,25.71s-17,7.33-25.3-9.88c0,0-7.46,19.89,16.4,18.77C296.57,146.31,303.22,146.19,305.47,137.42Z"/>
</svg>
