<svg id="Dargon" xmlns="http://www.w3.org/2000/svg" viewBox="0 0 501.64 404.96"><defs><style>.cls-1{fill:#5b141a;}</style></defs><title>Dragon</title><path id="Dargon_body" class="cls-1" d="M483.22,127.12c-6.91,1.2-13.73,15.79-13.73,15.79a4.3,4.3,0,0,0-2.9-.28c2.48-34.81-24.61-53.91-31.78-57-9.63-4.21,14-1,14-1,6.43-1.65-4.65-9.27-4.65-9.27C417.26,73.89,406.82,60.12,404,55.54s-4-.17-4-.17,2.47,14.95,12.51,20.9,5.13,7.12,5.13,7.12S405,76.25,361.11,107.87c-1.75,1.26-3.56,2.58-5.41,4-26.47,19.83-38.84,24-44.61,23.73-4.76-.23-5-3.49-5-3.49-.82-1.75,5.85-9.12,5.85-9.12l0,10.16L323.76,118l2.59,11.33L334.12,114l3.58,7.07L343,106.64l6.55,5.93L352.18,99l8.54,5.51s.33-12.92,2-12.06,8.39,4.6,8.39,4.6-.73-13.68.14-11.77S385,89,383.41,88.15s-4.44-9-4.44-9c14.21,1.42,14.49-.31,14.49-.31s-9.2-5-10.43-13.77-10.78-4.4-11.4-2.44-6.51,9.26-23.45,17.41-3.83-1.8-3.83-1.8a59.6,59.6,0,0,0,14.54-20.62c5.68-13.23-1.83-3.25-1.83-3.25s-9.29,8.22-17.1,16.39-29.75,19.92-18.18,8.54,19-33.46,19-33.46,22.66-1.63,24.43-12.54,12-17.8,12-17.8c16.35-2.65,17.26,9.87,17.26,9.87C401.26,36.23,376,51.84,373,47s-5.69.55-5.69.55S379.18,59.76,394.7,44s-1-32.28-1-32.28S375,1.91,363,23.24s-18.45,13.81-18.45,13.81S356.74,14.57,342,3.92s-31.26,3.77-31.26,3.77c-23.84-14.77-33.41,17-33.41,17-2.3,30.57-25.57,25-25.57,25-17.68-9.06,0-19.75,0-19.75,11.36-6.82-2.88-4-2.88-4-18.3,14.71-4.23,27.9-4.23,27.9,24.81,10.51,37.06-15.42,37.06-15.42,1.53-25.32,14.11-27.56,14.11-27.56,22.18-2.29,6.52,25.23-10.39,42s-49.74,9-49.74,9c-17.76-5-21.75,1.48-21.75,1.48-2.28,15.84,28.5,11.4,28.5,11.4-6.63,2.76-37,2.84-37,2.84s-11.59,7.84-6.35,13.7,35,.67,35,.67c-10.81,10.32-17.53,4.52-35.3,8.71s-6.33,17.24-6.33,17.24c16.54-.26,40.36-10.84,40.36-10.84l-11.35,8.18c-21.86,20.33,6,13.94,5.36,12.36s18.57-20,18.57-20c11.83-7.51,13-3.79,13-3.79C247,115,219.72,145.29,219.72,145.29c-7.75,9.65,10.41,6.7,10.41,6.7q1.67,4.59,3.38,8.93c-9.32-2.45-16.73-4.71-16.73-4.71-61-11.31-102.7,15.32-102.7,15.32s-7.31-1.58-34.94,30.38-22.55,76.23-22.55,76.23c-.25,5.64-1.75,14-2,21.59-3.87,4.15-14,15.19-14.72,17.49-.88,2.86,5.07,2.6,5.07,2.6L37,329l5.31,2.73L26.37,343.38l9.39,1s-20.64,7.35-25.41,14.36l8.29,1.42L9.5,370.62l6.44,3.31-4.74,7.78,4.27,2.19L0,405,34.57,392l-4.42,8.6,14.46-4.39-.27,5.06s16.27-6.76,22.61-19.1l4.63,5.69,5-9.72,8.35,5.24,3.2-13,2.37,2.17L94,360.15l4.32,2.69-.37-11.52,8.06,1.3-2.45-8.82,5.13-1.14s-5.57-21.29-8.87-24.17c-1.46-1.27-5.48-9.29-11.61-16.1,4.4-5.43,4.33-9.28,4.33-9.28-1.31-21.24-8.13-42.41,16.68-67.75.78-.79,1.6-1.54,2.44-2.27-.35,2.26-2.42,13.57-9.81,19.66-8.24,6.79,6.93,7.84,11.44,2.93,3.39-3.7,14.46-16.66,24-23.83-1.19,3,7,8.16,12,7,6.48-1.56,33.31-9.14,42.84-5.51s15.69,8.17,17.15,6.87-6.65-9.5-10.85-15.11S178,210,178,210a4,4,0,0,0-.2-1.17c45,3.09,93.95,20.26,103.52,24.39,69,55.83,155.85-23.44,170.21-49.11a111.77,111.77,0,0,0,10.62-21.34c1.1,4.52,2,11.44-.32,17.46-3.88,9.94,9.88,3.46,11.42-3s6.92-33.84,14.46-40.71,14.38-10.29,13.88-12.18S490.13,125.91,483.22,127.12ZM141.32,220a10.64,10.64,0,0,0-2,.38,20.94,20.94,0,0,1,6.46-3.18c2.3-.53,4.46-.92,6.45-1.23A25.55,25.55,0,0,1,141.32,220Zm19.4-11.17s-.64.73-1.75,1.8c-1.88-.61-4.12-1.23-6.36-1.87q4.54-.36,9.26-.43Z"/><path id="Dargon_nose" class="cls-1" d="M329,28.19s-8.54,1.29-11.29,8,2.65,17.76,12.6,10.06c0,0,4.72-2.65,0-12.84C330.23,33.38,327.38,29.3,329,28.19Z"/><path id="Dargon_eye" class="cls-1" d="M307.09,62.19s11.66,4.22,8.73,14-17.73,20.08-24,7.73c0,0,12.17,5.66,15-8.83,0,0-2.53-7.64-7.6-3.55,0,0-15.53,11-15.88,9.75s-7.16,12.45,8.06,18.27c0,0-11.43,6.21-20.38-12.24,0,0-14.49,4.78-23.19,4.84.46-.91-11.85-1.83,18.61-10.58,0,0,20.48-3.39,39.13-24.28,0,0,9-13.45,6.21-2.29Z"/><path id="Dargon_flakes" class="cls-1" d="M392.79,173.23c-29.76,40-79.06,15.34-79.06,15.34s28.45-9.33,65.14-35.24C378.87,153.33,422.54,133.25,392.79,173.23ZM298.59,102s-13,18.42-32.52,5.74c0,0,4.95,25.44,29,9.15C295,116.89,301.85,112.55,298.59,102Zm-13.27,25.7s-17,7.33-25.3-9.88c0,0-7.46,19.89,16.4,18.77C276.42,136.59,283.07,136.47,285.32,127.7Z"/></svg>