<svg id="Goat" xmlns="http://www.w3.org/2000/svg" viewBox="0 0 156.54 173.17"><defs>
  <style>.cls-1{fill:#5b121a;}</style></defs>
  <title>Goat</title>
  <path id="Goat_body" class="cls-1" d="M104.44,17.8s5.86-1.3,7.48-2.28,4.89,1.14,4.89,1.14,3.26,8.31,37.12,6.68c0,0,5.86.32,0,9.12,0,0-.32,5.86-3.58,7.16,0,0-11.29,5.54-12.92,7.38s-7.81,6-10.31,6.4c0,0,2.5,12.27,3.37,12.7s7.92,17.81,8.35,19.22,11.73,22.68,6.95,39.29c0,0-4.56,15.09-11.61,25.4,0,0-5,14.33-3,19.21,0,0,1.84,7.28-4.67,0s-10-10.31-11.72-17.47c0,0-1.74-5.43-3.26-.11,0,0-5.32,19.71-2.82,20.82,0,0,.22,2.95-3.69-3.13s-8-12.16-7-16.5c0,0,.33-1.52-3.8,0s-28,7.6-46,.87c0,0-1,16.61,2.28,17.8,0,0,.43,2.5-5-3.15s-11.61-3-18.23-23c0,0-2.61-3.36-2.39,2.07s.11,23.44,1.95,23.88c0,0-1.41,2.6-7.92-8.69,0,0-28.33-31.48-9.44-64.47,0,0-17.8,0-4.56-23.67,0,0,15.2-19.54,26.27,7.6,0,0,7.59-1.08,10-2.39,0,0-31.69-33.65,16.72-54.49,0,0,17.8-3.47,26.05-.65,0,0,8.47-3.47,10.42-3.47,0,0-36.69,1.73-32.78-8,0,0,15.2-10.64,34.08,3,0,0-2.39-12.59,2.39-16.06C98,0,109.1,4.34,104.44,17.8Z"/>
  <path id="Goat_eye" class="cls-1" d="M138.41,26.05s-6.51,7.38-21.71-1.95c0,0-16.72-5.43-21.93,10.42,0,0,5-4.84,8-5.24,2,.9-7.73,12.18,10.57,12.84,3.66,1.83,12.71-9.37,1.8-9.46,1.26-.66,7.95,5.56-3.42,5.33,0,0-6.31-.36-4.29-6.45,0,0,.22-4.29,6.73-3.32s8.31,3.32,8.31,3.32S135.75,34.14,138.41,26.05Z"/>
  <path id="Goat_horn" class="cls-1" d="M43.82,79.85C93.69,108.65,97.76,60.3,95.7,55.54,108.7,101.46,58.11,96.56,43.82,79.85Zm11-24.47c-1-5.91,6.35-8.7,6.35-8.7,15.84-3.9,18,11.38,18,11.38C76.87,75.57,59,73.23,52.44,69.77S45.64,58,45.64,58c-2.79,1,2.06,26.23,26.21,18s9.81-29.67,9.81-29.67C66.58,33.51,57.49,40.66,51.44,47c-5,5.27.78,21.19,10.93,18.4s6.91-8.25,7-9-3.68-5.91-7.59-1.56,1.23,7,1.23,7C60.81,62.41,55.79,61.29,54.79,55.38Z"/>
  <path id="Goat_tail" class="cls-1" d="M19.32,92s4.33-2.55.93-8.06c0,0-10.5-6-7.9,8.78,0,0,3.18,2.19,5,2s-11.81,7.51-10.56-11c0,0,.43-13.44,13.61-6.85C20.43,76.83,29.58,85.5,19.32,92Z"/>
</svg>
