<svg id="Horse" xmlns="http://www.w3.org/2000/svg" viewBox="0 0 212.59 168.96"><defs>
  <style>.cls-1{fill:#5b121a;}</style></defs>
  <title>Horse</title>
  <path id="Horse_body" class="cls-1" d="M211.93,136.44c-6.33.72-20.4-7.82-21.22-14.57s-10-20.35-10-20.35c12.08,6,11.48,13.72,11.48,13.72,6.42-7-2-15.76-2-15.76-17-22.41-40.56-20-50.93-17.52-.32-.87-.63-1.62-.86-2.2l-.14-1.19S135,66.16,112.67,67.27c0,0-12-.43-15.51.59,2.49-2.29,8.76-9.88,6.71-16.31-2.64-8.27-5-20.87,1.47-20.22,0,0,7.92,5.61,5-4,0,0,1.46-14-6.46-20.49,0,0,0-2.39-2.93-5.15,0,0-2.64,5.52-5,5S86.56,5,85.68,6.66c0,0-2.35-2.25-6.45-6.66,0,0-5,5-4.7,6.66C61.65,4.28,38.09,16,24.51,25.45c-5.94,6.62-15.31,13.75-8,11.7C13,39.73,7.38,46,4.33,51.85-.19,62.33-3.59,72.72,7.05,60.92,5.68,63.4,4.77,70,4.52,76.38,7.05,87.11,1,108.62,10.87,83.53c-.41,5.44,4,14.94,8.7,21.74C27,110.55,34.64,120.69,29.64,107a49,49,0,0,1,5.87,27.3s4.7,16.54,5.28,21.5.3,10.47,5,8c0,0,12.62,1.11,10.86-3S54.05,133.15,53,128.47c0,0,5.41-1.93,4.82,5,0,0,3.52,30.32,2.93,32.53s.3,3.58,6.16,2.76,10.27,3.3,9.1-6.35-1.47-31.42,2-30.87,18.19-2.21,18.78-.28.29,14.06-3.52,22.33c0,0-2.64,18.75,1.47,13.51l10-1.1s3.82,4.13,3.82-5.79c0,0,3.22-15.16,5.57-14.34,0,0,2.06-8.54,1.47-11.57s6.75-6.35,5.28,11c0,0-3.72,17.09.19,16.82s14.77,3.31,12.43-5.24c0,0,1.76-16.54,3.52-16.54s2.34-11.58-2.06-19.57c0,0-2.06-14.34,3.37-21.51A13,13,0,0,0,140.15,96c10.87,4.9,14.78,23.11,14.78,23.11,2.19-1.79,1.64-10.79,1.64-10.79,2.62,29.87,27.36,34.32,18.5,28.93s-9.78-25-9.78-25C177.63,162.16,218.25,135.72,211.93,136.44Z"/>
  <path id="Horse_face" class="cls-1" d="M30.77,95.71c-38-40.8,17.37-64.23,17.37-64.23C3.75,56,30.77,95.71,30.77,95.71ZM75,58.89s-.17,10.39,18.37,9.33C93.4,68.22,79.65,67.58,75,58.89Z"/>
  <path id="Horse_eye" class="cls-1" d="M97.69,33.82c-.49-3.72-3.58-3.73-5.4-2.66-2.15,1.27-2.42,6.88,5.4,4.05,0,0,4.93-3.92,0-9.22,0,0-2.58-2.31-7.75,0s-3.39,10.7,0,10.2C84.06,28.52,98.87,21.15,97.69,33.82Z"/>
  <path id="Horse_nose" class="cls-1" d="M99,54.16s1.37,5.39-4.08,7-2.83-3.52-.82-3.52c0,0,2.47-2.69-2.42-2.28s-3.41,8.08-1.37,7c0,0,6.62,2.7,10.14-2.48a5.8,5.8,0,0,0,1-5C100.65,52.3,100,52.71,99,54.16Z"/>
</svg>
