<svg id="Monkey" xmlns="http://www.w3.org/2000/svg" viewBox="0 0 166.48 153.81">
  <defs><style>.cls-1{fill:#5b121a;}</style></defs>
  <title>Monkey</title>
  <path id="Monkey_body" class="cls-1" d="M89.74.31s-27-1.94-31.65,29.31c-.64,2.31,3.84,6.8-4.3,12.61L41.68,50.09a4.54,4.54,0,0,0,0,6.49c3.13,3.51-16.6-13.72-16.41-16.34S24.1,38.8,14.14,52.09c0,0-12.89,9.76-13.28,15S-4.42,81.78,14.34,89c0,0,10.93,3.12,17.38,0,0,0,3.32,20.12,8,21.48,0,0-22.46,13.68-.2,33,0,0-12.5-2.93-13.08-2.74s-1.57-2-11.33,9.77c-4.12,2.19,45,2.23,61.53,3.12,15.66.85,23.25-2.34,23.25-2.34s11.52-.78,20.31,1.56,29.5-.78,34.38-12.69c0,0,14.85-18,1.17-45.32s-11.57-31.81-10.15-36.08c0,0,5.07-10.58,12.69-4.93,0,0,8,5.08-2.54,10.14,0,0-3.71-7.62-8.2-1.17.19,2,3.51,14.22,17.19,1,0,0,4.88-8.67-1.76-14.89s-17.58-5.23-23.83,6.29c0,0-5.08,14.46,2.93,23.64,0,0,11.72,22.85,11.52,30.08,0,0,1.76,17.78-5.66,23.44,0,0,6.64-24.61-10.35-43.76S121,70.45,121.77,68.69s8.6-10.74,7.82-13.28,9.57,2.93,17.38-18.17c0,0,3.32-24.22-18.16-23.05a6.28,6.28,0,0,0-4.3,1C122.75,16.53,119.43-2.63,89.74.31Z"/>
  <path id="Monkey_eye" class="cls-1" d="M69,25.91c6.64-6.06,23.44,8.83,6.25,17.78-7.81,1.36-8.2-5.08-8.2-5.08,7.23,4.49,11.33-1.37,9-7.18s-12.5,0-12.5,0C63.31,31.7,64.51,28.81,69,25.91Zm-3.91.59S84.66,12.82,91.5,29.43c0,0,5.66,15.74-11.33,20.66,0,0-10.62-.13-16.64-7.86,0,0,8,25.38,30.7,8.63,0,0,22.07-19.48-7.81-35.5C86.42,15.36,73.13,11.26,65.12,26.5Z"/>
  <path id="Monkey_nose" class="cls-1" d="M47.74,53.86a6.46,6.46,0,0,1,6.84-3.77c5.27.43,5.86,6.29.78,6.49A12.59,12.59,0,0,1,47.74,53.86Z"/>
  <path id="Monkey_ear" class="cls-1" d="M122.75,25.91s8.6-2.15,11.72,1.76,3.13,12.1-1.17,16.21c0,0-3.91,5.76-8.6,7s14.46,1,16.41-12.77-7.23-15-7.23-15S128,20.44,122.75,25.91Z"/>
  <path id="Monkey_peach" class="cls-1" d="M8.87,69.67c-4.11,6.83,8.2,14.26,8.2,14.26-22.46-6.45-8.6-20.71-8.6-20.71C20,52.48,21.76,45.55,21.76,45.55,23.91,50.94,13,62.83,8.87,69.67Zm38.87-1s4.1,5.66-4.49,13.48c0,0,13.47,5.47,23.63,1.76,0,0-13.48-6.55-13.58-8s16.32,5,25.11-3.36C78.41,72.6,60.05,75.33,47.74,68.69Z"/>
</svg>
