<svg id="Ox" xmlns="http://www.w3.org/2000/svg" viewBox="0 0 224.22 235.59">
  <defs><style>.cls-1{fill:#5b151b;}</style></defs><title>Ox</title>
  <path id="Ox_body" class="cls-1" d="M214.55,81.91c-2.92-1.86-8.24-.81-11.13,0,10.5-4.63,29.19-32.35,16.58-40.55-13.45-8.76-7.4-25.07-7.4-25.07s-15.36,18.55-9.19,29.48S188.84,78.6,189.76,63.23s-28.7-16.39-28.7-16.39c-9.89-15.32,1.7-18.36,1.7-18.36C184.39,22.18,180.55,0,180.55,0s-8.62,13-24.76,13.13-23.52,27.4-18.65,32.55,5.09,17.24,1.4,20.86-30,.66-42.95-4.58-37.22,0-37.22,0C45.17,45.32,14.13,82.7,18.43,92.59s-3.5,15.66-4.56,27.27c-.22,2.46-8.21,9.25-8.07,17.11.18,10.55-19.19,31.43,11.87,7.9,2.61-2.71,6-6.23,10.49-10.73.11,1.08,5.26-8.42,5-13.34-.84-2.61-1.56-5-2.2-7.22-3.65-3.72-8.42-12.6-2.31-31.73,0,0,8.31-19.13,22.77-11,1.36.77-12.77,14.4-16.53,38.26a39.75,39.75,0,0,1-.61,9.76c-2.05,11.52-4.15,23.27-3.36,27.87,2.5,14.6,15.27,19.16,19.53,22,7.08,4.78,14.69,7.93,19.15,14.22,9.21,13,12.16,26.68,11,31.72-2.28,2.75,30.39,2.69,18.49-1.89-.73-2.84-2.51-7.12-5.72-13.21-1.14-8.54-3.3-20.26-6.72-35.84,3.75-6,11.76,6.37,11.76,6.37,8.22,19.23,16.11,23.69,14.88,31.68-.26,1.69,13.85,7.79,16.2,4,.67-1.09-14.11-26.56-12.09-27.85,13.47-.2,24.25,8.18,24.25,8.18s5.28,18.65,13.44,22.53,9,26.4,9,26.4c24.24,2.32,24.8-4.14,24.8-4.14,19.43-1.44,18.43-6.75,18.43-6.75S201,218.51,195,207s3.74-32.89,3.74-32.89c44-30.75,4.44-83.78,4.44-83.78s5,2.08,9.74,1.35,10.5-7.5,10.5-7.5A15.74,15.74,0,0,1,214.55,81.91ZM186,215.1c-2.27.68-11.37-6.81-14-13.95s-12.51-16-10.62-17.71c0,0,8,1.71,11.76,0,0,0,4.93,14.64,9.1,17.71S188.28,214.42,186,215.1Z"/>
  <path id="Ox_eye" class="cls-1" d="M167,69s5.31.77,2.85,5.75c0,0-3,3.87-8,0s3-11.87,5.12-9.83A9.1,9.1,0,0,1,177.27,69c4,6.13-5.5,12-5.5,12s10-1.63,8.15-12-15-8.68-17.06-5.61-10.05,11.57,4,15.83c0,0,12.33-2.73,5.69-11.41,0,0-3.47-3.22-8.53,1.19,0,0-2.62,5,1.89,3.75C165.89,72.73,169,73.15,167,69Z"/>
  <path id="Ox_nose" class="cls-1" d="M130,84.26c.33-1.23,9.52-1.72,9.52,2.45a4.68,4.68,0,0,1-4.1,4.67c2.46-1,0-4.67,0-4.67-8.2.25-4.65,6.87-4.65,6.87C125.28,90.64,129.66,85.49,130,84.26Zm-11.87-6.47s7.72-2.55,7.2,4.83c0,0-4.33,1.85-5.19-.45,0,0,.15,3.72,4.79,4.13s5-7.89,3.65-8.3S121.91,73.17,118.11,77.79Zm70.69,1S186.08,98.68,142.51,98C142.51,98,196.77,101.72,188.8,78.75Z"/>
</svg>
