<svg id="Pig" xmlns="http://www.w3.org/2000/svg" viewBox="0 0 177.36 126.71"><defs>
  <style>.cls-1{fill:#5b121a;}</style></defs>
  <title>Pig</title>
  <path id="Pig_body" class="cls-1" d="M39.61,45.94s7.72-5.35,7.72-5.8,4.78-9.51-6.25-14.86c0,0-9-3.12-11-2.68s3.79-3.86,9.15-5.5c0,0,17.5-4,28.34,6.69,0,0,2.21-13.37-4.59-17.54,0,0-3.68-3.42-5.15-3.86S54.86.16,60.19,0,78,1.35,81,3,91.62,6.4,98.05,15.91c0,0,17.65-1.63,26.84.9s23.89,5.35,37.31,19c0,0,2.57,0,6.62-4.9,0,0-8.83,0-11.86-6.69,0,0-.18-11.37,15.16-4.91a8.49,8.49,0,0,0-3.86-10s.74-.66,3,1.34,7.62,5.2,5,13.53c0,0,5.06,11.52-7.44,21.7,0,0,7.62,15.61,1.1,32.63,0,0-7.72,18.13-7.63,19.39a83.44,83.44,0,0,0-3,9.81,124.79,124.79,0,0,0-1.47,13.16s-.37,1.41-1.65-.6-2.58-4.08-4.23-2.08a36.94,36.94,0,0,0-2.67,3.64s-.82,1-1.19-1.85-3.68-11.45-5.61-11.82l-10.75,15.09s-1.38,3.12-2,0-.74-3.94-2.21-2.75a22.91,22.91,0,0,0-3.12,3.42s-1.1,1.18-.74-2.23-.18-9.22-.09-10.33A64.89,64.89,0,0,1,113.31,113c-4,.07-17.09-.38-26.74-1.12,0,0-1.29-.37-3,1.93s-12,12-15.43,12.79c0,0-.83,1-.46-2.31s.64-4.16-1.93-2.67-14.71,4.16-5.43-2.23c0,0,4.32-1.93,4.88-14.27,0,0,.91-4.16-1.84.37s-16.08,10.26-16.08,10.26-5.52,4.23-4.32.81c1.37-4.16,1-4.46-1.11-4.16,0,0-3.12.52-6.06.67,0,0-1.47.52,1-2s8.45-11.14,6.62-20.43c0,0,1.37-3.94-13.33-7.29S9.74,79.38,0,71.06c0,0,5.15-9.44,1.65-16,0,0,.37-.59,2.39-.44S19.3,54.41,19.39,54s4.69,9.73-.18,13.75c0,0-2.3,5.5,1.56,3.19s7.81-9.07,3.12-17.69A26.08,26.08,0,0,0,28,51.66s5.7,5.8,2.57,13.31c0,0-3.12,7.28,2.85,2.15s1.2-16.13-1-16.87a6.94,6.94,0,0,1,3.49-1.93s4.5,2.45,4.23,10.77c-.38.82,2.21,6.6,4.59-2.45A13.74,13.74,0,0,0,39.61,45.94Z"/>
  <path id="Pig_ear" class="cls-1" d="M89.6,37.91C96.4,12.05,68.12,6.16,68.12,6,101.8,3.79,93.42,39.16,89.6,37.91Zm-48.52-16C65,20.3,63.68,34.35,63.68,34.35,70.67,17.25,44.57,18.59,41.08,21.9Z"/>
  <path id="Pig_tail" class="cls-1" d="M170.84,23.2s-4.78,4.9-5.52,0S172,22.21,170.84,23.2Z"/>
  <path id="Pig_nose" class="cls-1" d="M15,61.84S6.34,66.6,6.89,59.47C6.89,59.47,10.38,53.22,15,61.84Zm0,6.69s-9.93-5.35-9.19,0C5.79,68.53,5.05,75.37,15,68.53Z"/>
  <path id="Pig_eye" class="cls-1" d="M63,70.47C55.7,72,54.63,68.35,54.5,68.86,64.05,69.64,63,63.4,63,63.4c-5.15-7.67-12,0-12,0C55.25,49.3,80.48,60,63,70.47Zm16.32-4.32c1.47-2.22,0-16.79-14.44-16.94S51,58.28,51,58.28c10.06-12.19,21.19-1,21.19-1,9.56,10.75-9.93,16.9-9.93,16.9C73.79,75.07,77.84,68.38,79.31,66.15ZM85,54.26c9.18,18.88-14,23.49-14,23.49,17.82-1,19.66-10.7,19.66-10.7s5.52-10.85-7.17-21.41-26.65.89-26.65.89C76.18,37.76,85,54.26,85,54.26Z"/>
</svg>
