<svg id="Rabbit" xmlns="http://www.w3.org/2000/svg" viewBox="0 0 203.21 172.4">
  <defs><style>.cls-1{fill:#5b141a;}</style></defs>
  <title>Rabbit</title>
  <path id="Rabbit_body" class="cls-1" d="M188.51,82.74a16.83,16.83,0,0,0-11,3.84,61.11,61.11,0,0,0-10.36-14.72C139,42.16,86.16,60.42,85,64.62S68,55.78,75.18,50.9,85.8,17.74,82.05,9.67c0,0-.94-4.44-13.9.16A20.76,20.76,0,0,0,54,26.28s.76-24-5-23.86c0,0-9.83-14.39-15.38,27,0,0,.63,19.73,2.84,21s-7.82,4.48-7.82,4.48c-4.48-2.94-35.19,34.34-27.41,41,4.12,3.53,28.24,21.84,43.59,10.72.41-.19,5.57,1.25,8.06,3.37,9.65,8.21,21,28.41,4.32,38.28,0,0-14.44,10.1-13,11.92s7.95,3.86,9.89,2.4-7.19,7.22-4.38,7.52,5.52,4.93,27,.27c0,0,10-6.91,15.79-17.61s22.18,8.73,53.66-5.84c0,0,10.2-2.23,4.39,5.47s-9.09,14.34-.19,14.64,20.46,1.88,22-5.29,4.26-22.85,5.94-22c1.13.56,8.33-16.69,4.57-37.06a19.1,19.1,0,0,0,6.15,1c8,0,14.35-4.76,14.22-10.52S196.5,82.68,188.51,82.74Z"/>
  <path id="Rabbit_ear" class="cls-1" d="M60.17,48.27C72.3,47.92,77.4,13.16,77.4,13.16,83.59,53.14,60.17,48.27,60.17,48.27ZM45.91,22.21s2.8,19-5,21.15C40.86,43.36,57,42.07,45.91,22.21Z"/>
  <path id="Rabbit_eye" class="cls-1" d="M25.22,74.25c17.21-6.07,19.16,10.46,19.16,10.46-7,20.27-19.46,5.57-19.46,5.57,14.82,8.6,11.86-7.14,11.86-7.14-1.38-3.75-8.06-5.2-8.06-5.2C15,77.68,21.4,88,21.4,88,14,78.43,25.22,74.25,25.22,74.25Zm2,15s2.63-2.35-.47-5.09S19.7,88,19.7,88C16.2,94,27.24,89.28,27.24,89.28ZM8.12,93.39c0-.41-.43-.8-1-.87s-1.17.21-1.21.63.42.8,1,.87S8.07,93.81,8.12,93.39Z"/>
</svg>
