<svg id="Rooster" xmlns="http://www.w3.org/2000/svg" viewBox="0 0 165.42 171.46"><defs>
  <style>.cls-1{fill:#5b121a;}</style></defs>
  <title>Rooster</title>
  <path id="Rooster_body" class="cls-1" d="M102.81,32.83c6.88-5.58-9.55-.33-9.55-.33A19.1,19.1,0,0,1,85,32.21c-12-5-6.75-19.76-6.75-19.76,7.24-9.64,19.51-3.38,19.51-3.38,0-6.6,7.46-8.37,7.46-8.37C119.32-3,127.67,9.09,127.67,9.09c17.47-2.19,7,15.08,7,15.08s18.62,1,26.68,16.52c0,0-16.32-.2-16.93,9.27,0,0-.2,8.46,10.68,11.68,0,0,16.52,10.08,7.66,18.94,0,0-8.06,7.46-15.52-1.81,0,0,31.63,35.86-7.85,73.13,0,0-10.88,9.06-19.34,11.08,0,0,23.57,6.44,23.57,7.85s-98.52,0-98.52,0-1.41-2.21,7.66-3.42a53.16,53.16,0,0,0,15.71-4.63s-23.57-13.5-29-26.19S18.76,112,7.28,113.82.83,112.21,2.85,111s7.65-4.63,14.5-3.62c0,0-26.39-18.14-3.82-41.71,0,0-3.43,17.53,12.08,23.57,0,0-25-40.89,14.71-49.15,0,0-9.47,13.29-1.81,26,0,0,4.23-14.71,18.73-17.33,0,0-15.51,28.41,11.69,40.49,0,0,22,3.16,23.16-26.79C92.09,62.45,93.37,40.48,102.81,32.83Z"/>
  <path id="Rooster_eye" class="cls-1" d="M136.62,38.28a6.08,6.08,0,0,0-4-7.86c-6-2.22-16.72,1.61-15.92,11.08S135,57.41,138,43.51c2.35,2.61-21.4,10.08-14.51-8.26C123.52,35.25,128.56,51.17,136.62,38.28Z"/>
  <path id="Rooster_feather" class="cls-1" d="M143.87,75.34c-12.69-9.06-4.64-20.55-4.64-20.55C137.82,68.7,143.87,75.34,143.87,75.34Zm-10.78-13.8s-15.41,5.85-18.74-6.75c0,0-3.32-5.84-7.25,0s11.38,11.29,11.38,11.29S131.58,65.47,133.09,61.54Zm0,9.67S114,77.86,106.46,64c0,0-2.38-1.81-5.7,2.12S117.38,83.91,133.09,71.21Z"/>
</svg>
