<svg id="Tiger" xmlns="http://www.w3.org/2000/svg" viewBox="0 0 206.24 158.37">
  <defs><style>.cls-1{fill:#5b141a;}</style></defs>
  <title>Artboard 1</title>
  <path id="Tiger_body" class="cls-1" d="M191.84,11.36c-1.15-1.15,2.93,7.86-10.15,19.8C178.92,32.65,192,62.34,168,72.54c0,0,10.15,22.89,9.14,28.61,0,0,2.74,18,15.84,24.65s14.15,8.8,12.87,22.44c0,0-5.35-8.36-10.43,5.29,0,0-10.66-1.76-12.7-3.08l-2.54,7.92s-1-4-8.63-5.28-20.31-33.46-29.45-30.37c0,0-9.65,7.48-25.9,7,0,0-3.05,15-10.16,16.72s-9.39.22-11.42,8.37c0,0-2.29-3.08-2.54-4.4s-6.86,2.42-6.35,4-1.45-5.07-2.25-5.51-6.38.66-7.65,1.33.76-1.33,0-5.29-6.61-3.74-2-15c0,0-13.71,1.32-15.48-.22l-2.8,3.08,1.53,4s-6.35.66-5.59,2.86-10.92,1.76-17.77-6.38S10.8,121,10.8,121s-15.23-8.14-6.6-24.2,22.35-20,23.62-20-5.08-17.17-9.14-24.43S-11.54,21.26,6,15.1c0,0,5.33-2.64,3.3,2.42S5,24.34,12.84,33.58,34.93,64.17,34.93,64.17s3.8,9.47,6.09,9.47S70.73,71,71.49,71s16.89-6,20.31-7.49c3.76-1.58-15.52-10.25-.5-35.87,2.91-1-5.34-14.28-7.84-27.51a34.27,34.27,0,0,1,19.66,4.4s1.63-.88,8.74,2A29.13,29.13,0,0,0,121,5c3.81-1.54,21.08-1.32,22.09-.44S154.52,9.37,160.36,10,171,11.8,178.64,9.82A38.84,38.84,0,0,1,191.84,11.36Z"/>
  <path id="Tiger_signal" class="cls-1" d="M130.14,26.31s11.19,0,11.45,1.27,2-.42-1.06-1.69-4.59-2-4.29-2.19.38-2.52.82-2.36,6,1.61,6.84,2,.36-1.18-.53-1.69-4-3.28-6.14-3.45a1.9,1.9,0,0,1,.63-2.28s5.95,2.87,7,2.87-1.69-4.8-7.37-4.89-9.24.25-9.33,1.85c0,0-.53.76,2.58.09,0,0,3.91,0,3.37,1.18s.45,1.94-1.59,1.85-5.95.35-6.22,2.07c0,0-.44.64,4.88,0,0,0,3.11,0,1.87,1.64S132.8,24,129.43,24s-5.86,2.7-5.86,3.12.26.5,2.57-.42Z"/>
  <path id="Tiger_eye" class="cls-1" d="M144.74,34.65a13.23,13.23,0,0,1,9.65-5s5.7-.06,6.29,1.44c.19.5,7.51-.74,7.59-.41,0,0,.11,3.29-5.32,4a7.63,7.63,0,0,1-5.53-1s-8.35-.41-9.54,1.75l-3.69,1.55S142.62,36.79,144.74,34.65Zm2.49,1.85c-.76,0-1.73,3,0,5.66s7.05,1.65,8.72-2.31,0-5.09,0-5.09L155,36.4c-2.24,6.64-6.83,1.65-6.83,1.65S148,36.5,147.23,36.5Zm11,2.53S152,52.81,144.69,44.38l-.54-2.47S140.64,46,143,49.52s12.32-1.85,12.32-1.85,7.28-5.25,4.92-11.42l-.84-1.49A31,31,0,0,1,158.25,39Zm-34.07-5.65a13.07,13.07,0,0,0-9.08-5.92s-5.67-.59-6.41.85c-.25.48-7.4-1.44-7.51-1.12,0,0-.45,3.27,4.87,4.49a7.64,7.64,0,0,0,5.61-.51s8.35.37,9.32,2.63l3.5,1.88S126.06,35.7,124.18,33.38Zm-3.81,3s-5.09,4.54-6.62-2.27L113,32.44s-1.78,1-.53,5.06,6.44,5.62,8.44,3.12,1.34-5.56.59-5.63S120.37,36.43,120.37,36.43Zm-10.83-4.32-1,1.41c-3,5.92,3.72,11.82,3.72,11.82s9.31,6.25,12.07,3-.32-7.68-.32-7.68l-.79,2.41c-8.1,7.72-12.94-6.59-12.94-6.59A30.27,30.27,0,0,1,109.54,32.11Z"/><path id="Tiger_nose" class="cls-1" d="M129.23,53.08s7.55-1,8.23,0,6.07,1,4.31-4.61c0,0,3.38,4.62,2.57,5.13s-1.35,2.29-6.07,2.81S135,61.78,135,61.78h-1.49s.27-4.35-3.64-5.37-5-.13-5.35-2.82-1.13-5,1.84-8.07c0,0-1.35,4.87-.94,5.51S124.77,54.74,129.23,53.08Zm1.69,11.46c-.85-.48,6.7-.36,6.7-.36s.43.56.21.28,1.74-1.92,1.74-1.92c-1.52-1.77-11.91,0-11.91,0S131.77,65,130.92,64.54Z"/>
  <path id="Tiger_face" class="cls-1" d="M135.28,77.82a16.37,16.37,0,0,0,14.27-4.59c-2,6.13-8,10.69-17.69,8.32S119.12,69,119.12,69,126.3,76.43,135.28,77.82ZM99.5,52l20.56,1.3Zm49.78,1.43,15.19-2.71Zm1.27,3.43L169,58.49Zm-2.68,2.67,12,7.31Zm-38.09,6.16,11.45-5.5Zm-6.23-5.2,17-4Z"/>
</svg>
